pedal_clip_forces_x_-0.1_y_-0.04.mot
version=1
nRows=167
nColumns=4
inDegrees=yes
endheader
time	PedalClip_calcn_r_Fx	PedalClip_calcn_r_Fy	PedalClip_calcn_r_Fz
0.84628649	-10.8240349660301	37.2750346560564	0
0.84664825	-10.9425362275736	37.3764645577446	0
0.84679471	-11.0615620938266	37.4785737403244	0
0.84705611	-11.1810967831055	37.5813581504788	0
0.84741321	-11.3011370732461	37.6848076824639	0
0.84746582	-11.4216907419064	37.7889182358803	0
0.84759674	-11.5427731399419	37.8936927173165	0
0.84796113	-11.6643883922066	37.9991384683045	0
0.84810517	-11.7865266307412	38.1052590285816	0
0.84836637	-11.9091721889991	38.212048394479	0
0.84871956	-12.032313578032	38.319494654083	0
0.84877256	-12.1559459647815	38.4275912172593	0
0.84890234	-12.2800798580238	38.5363384227386	0
0.84926647	-12.404715153549	38.6457427077162	0
0.84940751	-12.5298402835915	38.7558093019228	0
0.849667	-12.655441648155	38.8665347109961	0
0.85001721	-12.7815037944046	38.9779083429906	0
0.8500703	-12.9080182027055	39.0899222654231	0
0.85019924	-13.0349997474302	39.2025747704201	0
0.85056231	-13.162450717086	39.3158780056308	0
0.85070073	-13.2903618939337	39.4298498814852	0
0.85095844	-13.4187236662495	39.5444950381385	0
0.85130627	-13.5475155124691	39.6598022324853	0
0.8513592	-13.676717879851	39.7757556268597	0
0.85148749	-13.8063287830743	39.8923384083417	0
0.85184856	-13.9363426750837	40.0095328144385	0
0.85198469	-14.0667541315881	40.1273143279467	0
0.85224051	-14.1975651341739	40.2456500517968	0
0.85258657	-14.3287599184368	40.3645089163277	0
0.85263903	-14.4603165733478	40.4838700052675	0
0.8527669	-14.592218518893	40.6037197300677	0
0.85312466	-14.7244418599589	40.724047897108	0
0.85325866	-14.856960400501	40.8448443911154	0
0.85351235	-14.9897647759929	40.9660928721402	0
0.85385731	-15.1228277776324	41.0877812216553	0
0.85390892	-15.2561170748426	41.2099063438411	0
0.85403663	-15.3895950297336	41.3324654951495	0
0.85438924	-15.5231864670461	41.4554418568167	0
0.85452116	-15.6568041745377	41.5788071851402	0
0.85477223	-15.7903965697588	41.7025309741107	0
0.85511677	-15.923935268611	41.8266018469159	0
0.85516705	-16.0574315942578	41.9510274151988	0
0.85529489	-16.1909175779916	42.0758214584151	0
0.85563983	-16.3243836961875	42.2009934197133	0
0.85576963	-16.4578160101161	42.3265473012088	0
0.85601713	-16.5912633317771	42.4524762461996	0
0.85636184	-16.7249009557122	42.5787853710164	0
0.85641022	-16.858958518437	42.7054922893681	0
0.85653854	-16.9936215595649	42.8326125902106	0
0.85687245	-17.1289855163532	42.9601417687463	0
0.85700027	-17.2650808682328	43.0880597905376	0
0.8572426	-17.4018950586928	43.2163331026849	0
0.85758765	-17.5394026049165	43.3449153279597	0
0.85763367	-17.6775804808372	43.473760188305	0
0.85776272	-17.8164054029021	43.6028230267618	0
0.85808199	-17.9558461751674	43.7320628272869	0
0.85820902	-18.0958575415566	43.8614685868361	0
0.85844495	-18.2364022494297	43.9910937344805	0
0.85879076	-18.3774818597865	44.1210256020666	0
0.85883371	-18.5191173072333	44.2513528864614	0
0.85896395	-18.6613439208733	44.3821358332857	0
0.85926279	-18.8042050944802	44.5134120979985	0
0.85937357	-18.9477259220733	44.6452086207701	0
0.85959781	-19.0919198941374	44.7775678677095	0
0.85995706	-19.2368365950063	44.9105289254657	0
0.85999298	-19.3825415717077	45.0441259526051	0
0.86012659	-19.5291243461894	45.1783852669434	0
0.86038255	-19.6766857493846	45.3133346634836	0
0.86046422	-19.8253118788838	45.4489970283722	0
0.86069023	-19.9750638399013	45.5853745335469	0
0.8610018	-20.1259971732922	45.7224414889942	0
0.86105931	-20.2781006559369	45.8601763446128	0
0.86117751	-20.431288051413	45.9985919208129	0
0.86154332	-20.5854215603485	46.1377529955605	0
0.86167531	-20.740349031814	46.277721353818	0
0.86191424	-20.8959544787949	46.4185353145603	0
0.86227581	-21.0521581902306	46.5602031626264	0
0.86231197	-21.2088827758513	46.7027401736328	0
0.86244455	-21.366052034491	46.8461927553964	0
0.86270208	-21.5236040327411	46.9906476460371	0
0.8627871	-21.6815053829938	47.1362058666246	0
0.86300339	-21.8397555644353	47.2829426346223	0
0.86331895	-21.998381406173	47.4308886572622	0
0.86337305	-22.1574730874285	47.5800856520648	0
0.86349239	-22.3171407117621	47.7306087990417	0
0.86384142	-22.4774448096805	47.8825523459714	0
0.86396826	-22.6383947647582	48.0359895218949	0
0.86420905	-22.7999719872185	48.1909453326822	0
0.8646375	-22.9621444230351	48.3473986035571	0
0.86468034	-23.1249218705671	48.5053608775733	0
0.86479317	-23.2883353473463	48.6648965934116	0
0.86500795	-23.4524101737946	48.8261086961124	0
0.8651015	-23.6171440546073	48.9890892277788	0
0.86531765	-23.7824872991618	49.1538659189029	0
0.86560216	-23.9483348983727	49.3203635823742	0
0.86565943	-24.1145756951514	49.4884589820457	0
0.86577117	-24.2811314775458	49.6580345028378	0
0.86610888	-24.4479782405386	49.8290261687118	0
0.86623689	-24.6151246776286	50.0013930679854	0
0.86647509	-24.7825935887828	50.1750901511987	0
0.86689471	-24.9503870536151	50.3500594901214	0
0.86698327	-25.1184828992155	50.526223888242	0
0.86721322	-25.2868450508955	50.7034719154202	0
0.8675014	-25.4554413147832	50.8816963503874	0
0.86770994	-25.6242601543836	51.0608069283184	0
0.8680932	-25.7933088437599	51.2407320737521	0
0.86813152	-25.9625597161231	51.4214252326583	0
0.86825591	-26.1319570984057	51.6028533977055	0
0.86850154	-26.3014331056015	51.784974154637	0
0.86857884	-26.4709229115608	51.9677177925693	0
0.86878868	-26.6403886197531	52.1510106150878	0
0.86909661	-26.8098241864009	52.3347979199966	0
0.86914746	-26.9791935535656	52.5190626539663	0
0.86926495	-27.1484644593167	52.7037998778346	0
0.86958977	-27.3176308306184	52.8889895515444	0
0.86971002	-27.4867172597281	53.074583608058	0
0.86994582	-27.6557769392373	53.2605404610724	0
0.87029335	-27.8248763887599	53.446847972488	0
0.87049864	-27.9940513379598	53.6335360043699	0
0.87086558	-28.1633227408727	53.8206469999947	0
0.87107142	-28.3327044424956	54.0081938557656	0
0.8714352	-28.5022043068956	54.1961291877404	0
0.87147158	-28.6718315911507	54.3844008036107	0
0.87151982	-28.8415964705066	54.572988964034	0
0.87176104	-29.0115115129643	54.7619196597808	0
0.87196941	-29.1815877989861	54.9512280312168	0
0.87223323	-29.3518320208039	55.1409230583088	0
0.87243619	-29.5222437526541	55.330967040363	0
0.87280852	-29.6928210596949	55.521324370485	0
0.87284575	-29.8635625685903	55.7119867987378	0
0.87295491	-30.0344735441039	55.9029783727194	0
0.87314452	-30.2055595744466	56.0943282950449	0
0.87323098	-30.3768229646803	56.2860527151895	0
0.87344273	-30.5482669704729	56.4781486246441	0
0.87370429	-30.7198973349995	56.6706200245805	0
0.87375671	-30.8917185218196	56.8634785068086	0
0.87386246	-31.0637218811093	57.0567244114478	0
0.87413479	-31.2358845771744	57.2503378187987	0
0.87421771	-31.4081760144322	57.4442800893139	0
0.87441817	-31.5805652858428	57.6385006813674	0
0.87470356	-31.7530330282793	57.8329629541959	0
0.87490276	-31.9255758082767	58.0276529693768	0
0.87521015	-32.0982105043681	58.2225837006104	0
0.87525197	-32.2709816518145	58.417803448725	0
0.87537085	-32.443956756278	58.6133948561491	0
0.87563316	-32.6172048546172	58.8094563509283	0
0.87573328	-32.7907819960547	59.0060856054695	0
0.87593765	-32.9647222363574	59.2033627905302	0
0.87617383	-33.1390339292032	59.401339602842	0
0.87637302	-33.3137136020325	59.600052059249	0
0.87672377	-33.4887537764073	59.7995272896102	0
0.87675884	-33.6641482789755	59.999785618703	0
0.87680286	-33.8398876863766	60.2008392662899	0
0.87702296	-34.0159684586778	60.4027036150399	0
0.87723526	-34.1923959061969	60.6054047818673	0
0.87743927	-34.3691828676952	60.8089745979015	0
0.87764935	-34.5463578244542	61.0134582152228	0
0.87785123	-34.7239576883725	61.2188982169153	0
0.87806467	-34.9020185892033	61.4253293327011	0
0.87826442	-35.0805567927983	61.6327605652079	0
0.87848651	-35.2595864817549	61.8411957993089	0
0.87868409	-35.4391397809951	62.0506545869327	0
0.87893819	-35.6192800328746	62.2611859368063	0
0.8791332	-35.8000751410858	62.4728457677339	0
0.87948976	-35.9815613062768	62.6856621741747	0
0.87952542	-36.1637184031216	62.8996094439812	0
0.87962801	-36.3465000050058	63.1146379090178	0
